ffmpeg version 2024-07-22-git-172da370e7-full_build-www.gyan.dev Copyright (c) 2000-2024 the FFmpeg developers
  built with gcc 13.2.0 (Rev5, Built by MSYS2 project)
  configuration: --enable-gpl --enable-version3 --enable-static --disable-w32threads --disable-autodetect --enable-fontconfig --enable-iconv --enable-gnutls --enable-libxml2 --enable-gmp --enable-bzlib --enable-lzma --enable-libsnappy --enable-zlib --enable-librist --enable-libsrt --enable-libssh --enable-libzmq --enable-avisynth --enable-libbluray --enable-libcaca --enable-sdl2 --enable-libaribb24 --enable-libaribcaption --enable-libdav1d --enable-libdavs2 --enable-libopenjpeg --enable-libquirc --enable-libuavs3d --enable-libxevd --enable-libzvbi --enable-libqrencode --enable-librav1e --enable-libsvtav1 --enable-libvvenc --enable-libwebp --enable-libx264 --enable-libx265 --enable-libxavs2 --enable-libxeve --enable-libxvid --enable-libaom --enable-libjxl --enable-libvpx --enable-mediafoundation --enable-libass --enable-frei0r --enable-libfreetype --enable-libfribidi --enable-libharfbuzz --enable-liblensfun --enable-libvidstab --enable-libvmaf --enable-libzimg --enable-amf --enable-cuda-llvm --enable-cuvid --enable-dxva2 --enable-d3d11va --enable-d3d12va --enable-ffnvcodec --enable-libvpl --enable-nvdec --enable-nvenc --enable-vaapi --enable-libshaderc --enable-vulkan --enable-libplacebo --enable-opencl --enable-libcdio --enable-libgme --enable-libmodplug --enable-libopenmpt --enable-libopencore-amrwb --enable-libmp3lame --enable-libshine --enable-libtheora --enable-libtwolame --enable-libvo-amrwbenc --enable-libcodec2 --enable-libilbc --enable-libgsm --enable-libopencore-amrnb --enable-libopus --enable-libspeex --enable-libvorbis --enable-ladspa --enable-libbs2b --enable-libflite --enable-libmysofa --enable-librubberband --enable-libsoxr --enable-chromaprint
  libavutil      59. 28.100 / 59. 28.100
  libavcodec     61. 10.100 / 61. 10.100
  libavformat    61.  5.101 / 61.  5.101
  libavdevice    61.  2.100 / 61.  2.100
  libavfilter    10.  2.102 / 10.  2.102
  libswscale      8.  2.100 /  8.  2.100
  libswresample   5.  2.100 /  5.  2.100
  libpostproc    58.  2.100 / 58.  2.100
Input #0, matroska,webm, from 'physics\2226059347_153_Electrostatics_09__Questions_Based_On_PE__Electric_Potential.mkv':
  Metadata:
    ENCODER         : Lavf60.22.101
  Duration: 02:29:24.03, start: 0.000000, bitrate: 370 kb/s
  Stream #0:0: Video: h264 (High), yuv420p(tv, bt709, progressive), 640x360 [SAR 1:1 DAR 16:9], 30 fps, 30 tbr, 1k tbn
      Metadata:
        DURATION        : 02:29:24.033000000
  Stream #0:1: Audio: aac (LC), 48000 Hz, stereo, fltp
      Metadata:
        DURATION        : 02:29:24.010000000
Stream mapping:
  Stream #0:0 -> #0:0 (copy)
  Stream #0:1 -> #0:1 (copy)
[segment @ 0000026a19086680] Opening 'Electrostatics\09\\output000.mkv' for writing
Output #0, segment, to 'Electrostatics\09\\output%03d.mkv':
  Metadata:
    encoder         : Lavf61.5.101
  Stream #0:0: Video: h264 (High), yuv420p(tv, bt709, progressive), 640x360 [SAR 1:1 DAR 16:9], q=2-31, 30 fps, 30 tbr, 1k tbn
      Metadata:
        DURATION        : 02:29:24.033000000
  Stream #0:1: Audio: aac (LC), 48000 Hz, stereo, fltp
      Metadata:
        DURATION        : 02:29:24.010000000
Press [q] to stop, [?] for help
[segment @ 0000026a19086680] Opening 'Electrostatics\09\\output001.mkv' for writing
[segment @ 0000026a19086680] Opening 'Electrostatics\09\\output002.mkv' for writing
[segment @ 0000026a19086680] Opening 'Electrostatics\09\\output003.mkv' for writing
size=N/A time=00:17:31.76 bitrate=N/A speed=2.07e+03x    [segment @ 0000026a19086680] Opening 'Electrostatics\09\\output004.mkv' for writing
[segment @ 0000026a19086680] Opening 'Electrostatics\09\\output005.mkv' for writing
[segment @ 0000026a19086680] Opening 'Electrostatics\09\\output006.mkv' for writing
size=N/A time=00:34:10.13 bitrate=N/A speed=2e+03x    [segment @ 0000026a19086680] Opening 'Electrostatics\09\\output007.mkv' for writing
[segment @ 0000026a19086680] Opening 'Electrostatics\09\\output008.mkv' for writing
size=N/A time=00:40:18.45 bitrate=N/A speed=1.57e+03x    size=N/A time=00:44:53.03 bitrate=N/A speed=1.31e+03x    [segment @ 0000026a19086680] Opening 'Electrostatics\09\\output009.mkv' for writing
size=N/A time=00:46:58.26 bitrate=N/A speed=1.1e+03x    size=N/A time=00:48:11.43 bitrate=N/A speed= 937x    [segment @ 0000026a19086680] Opening 'Electrostatics\09\\output010.mkv' for writing
[segment @ 0000026a19086680] Opening 'Electrostatics\09\\output011.mkv' for writing
size=N/A time=00:56:28.84 bitrate=N/A speed= 941x    size=N/A time=00:57:09.06 bitrate=N/A speed= 832x    [segment @ 0000026a19086680] Opening 'Electrostatics\09\\output012.mkv' for writing
size=N/A time=01:02:00.00 bitrate=N/A speed= 803x    [segment @ 0000026a19086680] Opening 'Electrostatics\09\\output013.mkv' for writing
size=N/A time=01:07:18.13 bitrate=N/A speed= 784x    size=N/A time=01:08:53.80 bitrate=N/A speed= 729x    [segment @ 0000026a19086680] Opening 'Electrostatics\09\\output014.mkv' for writing
size=N/A time=01:14:56.66 bitrate=N/A speed= 727x    [segment @ 0000026a19086680] Opening 'Electrostatics\09\\output015.mkv' for writing
[segment @ 0000026a19086680] Opening 'Electrostatics\09\\output016.mkv' for writing
size=N/A time=01:22:45.69 bitrate=N/A speed= 741x    [segment @ 0000026a19086680] Opening 'Electrostatics\09\\output017.mkv' for writing
[segment @ 0000026a19086680] Opening 'Electrostatics\09\\output018.mkv' for writing
[segment @ 0000026a19086680] Opening 'Electrostatics\09\\output019.mkv' for writing
size=N/A time=01:35:06.00 bitrate=N/A speed= 791x    [segment @ 0000026a19086680] Opening 'Electrostatics\09\\output020.mkv' for writing
size=N/A time=01:40:35.15 bitrate=N/A speed= 780x    [segment @ 0000026a19086680] Opening 'Electrostatics\09\\output021.mkv' for writing
size=N/A time=01:45:55.76 bitrate=N/A speed= 770x    [segment @ 0000026a19086680] Opening 'Electrostatics\09\\output022.mkv' for writing
[segment @ 0000026a19086680] Opening 'Electrostatics\09\\output023.mkv' for writing
size=N/A time=01:55:57.50 bitrate=N/A speed= 794x    [segment @ 0000026a19086680] Opening 'Electrostatics\09\\output024.mkv' for writing
[segment @ 0000026a19086680] Opening 'Electrostatics\09\\output025.mkv' for writing
[segment @ 0000026a19086680] Opening 'Electrostatics\09\\output026.mkv' for writing
size=N/A time=02:12:15.70 bitrate=N/A speed= 855x    [segment @ 0000026a19086680] Opening 'Electrostatics\09\\output027.mkv' for writing
[segment @ 0000026a19086680] Opening 'Electrostatics\09\\output028.mkv' for writing
[segment @ 0000026a19086680] Opening 'Electrostatics\09\\output029.mkv' for writing
size=N/A time=02:26:38.52 bitrate=N/A speed= 898x    [out#0/segment @ 0000026a1908e780] video:295146KiB audio:105047KiB subtitle:0KiB other streams:0KiB global headers:0KiB muxing overhead: unknown
size=N/A time=02:29:23.96 bitrate=N/A speed= 905x    
